v 0 0.0 0.0
v 0 0.0625 0.625
v 0 0.125 1.25
v 0 0.1875 1.875
v 0 0.25 2.5
v 0 0.3125 3.125
v 0 0.375 3.75
v 0 0.4375 4.375
v 0 0.5 5.0
v 0 0.5625 5.625
v 0 0.625 6.25
v 0 0.6875 6.875
v 0 0.75 7.5
v 0 0.8125 8.125
v 0 0.875 8.75
v 0 0.9375 9.375
v 0 1.0 10.0
v 0 1.0625 10.625
v 0 1.125 11.25
v 0 1.1875 11.875
v 0 1.25 12.5
v 0 1.3125 13.125
v 0 1.375 13.75
v 0 1.4375 14.375
v 0 1.5 15.0
v 0 1.5625 15.625
v 0 1.625 16.25
v 0 1.6875 16.875
v 0 1.75 17.5
v 0 1.8125 18.125
v 0 1.875 18.75
v 0 1.9375 19.375
v 0 2.0 20.0
v 20.0 0.0 0.0
v 20.0 0.0625 0.625
v 20.0 0.125 1.25
v 20.0 0.1875 1.875
v 20.0 0.25 2.5
v 20.0 0.3125 3.125
v 20.0 0.375 3.75
v 20.0 0.4375 4.375
v 20.0 0.5 5.0
v 20.0 0.5625 5.625
v 20.0 0.625 6.25
v 20.0 0.6875 6.875
v 20.0 0.75 7.5
v 20.0 0.8125 8.125
v 20.0 0.875 8.75
v 20.0 0.9375 9.375
v 20.0 1.0 10.0
v 20.0 1.0625 10.625
v 20.0 1.125 11.25
v 20.0 1.1875 11.875
v 20.0 1.25 12.5
v 20.0 1.3125 13.125
v 20.0 1.375 13.75
v 20.0 1.4375 14.375
v 20.0 1.5 15.0
v 20.0 1.5625 15.625
v 20.0 1.625 16.25
v 20.0 1.6875 16.875
v 20.0 1.75 17.5
v 20.0 1.8125 18.125
v 20.0 1.875 18.75
v 20.0 1.9375 19.375
v 20.0 2.0 20.0
vn 0 1 0
vn 0 1 0
vn 0 1 0
vn 0 1 0
vn 0 1 0
vn 0 1 0
vn 0 1 0
vn 0 1 0
vn 0 1 0
vn 0 1 0
vn 0 1 0
vn 0 1 0
vn 0 1 0
vn 0 1 0
vn 0 1 0
vn 0 1 0
vn 0 1 0
vn 0 1 0
vn 0 1 0
vn 0 1 0
vn 0 1 0
vn 0 1 0
vn 0 1 0
vn 0 1 0
vn 0 1 0
vn 0 1 0
vn 0 1 0
vn 0 1 0
vn 0 1 0
vn 0 1 0
vn 0 1 0
vn 0 1 0
vn 0 1 0
vn 0 1 0
vn 0 1 0
vn 0 1 0
vn 0 1 0
vn 0 1 0
vn 0 1 0
vn 0 1 0
vn 0 1 0
vn 0 1 0
vn 0 1 0
vn 0 1 0
vn 0 1 0
vn 0 1 0
vn 0 1 0
vn 0 1 0
vn 0 1 0
vn 0 1 0
vn 0 1 0
vn 0 1 0
vn 0 1 0
vn 0 1 0
vn 0 1 0
vn 0 1 0
vn 0 1 0
vn 0 1 0
vn 0 1 0
vn 0 1 0
vn 0 1 0
vn 0 1 0
vn 0 1 0
vn 0 1 0
vn 0 1 0
vn 0 1 0
f 1//1 2//2 34//34
f 34//34 2//2 35//35
f 2//2 3//3 35//35
f 35//35 3//3 36//36
f 3//3 4//4 36//36
f 36//36 4//4 37//37
f 4//4 5//5 37//37
f 37//37 5//5 38//38
f 5//5 6//6 38//38
f 38//38 6//6 39//39
f 6//6 7//7 39//39
f 39//39 7//7 40//40
f 7//7 8//8 40//40
f 40//40 8//8 41//41
f 8//8 9//9 41//41
f 41//41 9//9 42//42
f 9//9 10//10 42//42
f 42//42 10//10 43//43
f 10//10 11//11 43//43
f 43//43 11//11 44//44
f 11//11 12//12 44//44
f 44//44 12//12 45//45
f 12//12 13//13 45//45
f 45//45 13//13 46//46
f 13//13 14//14 46//46
f 46//46 14//14 47//47
f 14//14 15//15 47//47
f 47//47 15//15 48//48
f 15//15 16//16 48//48
f 48//48 16//16 49//49
f 16//16 17//17 49//49
f 49//49 17//17 50//50
f 17//17 18//18 50//50
f 50//50 18//18 51//51
f 18//18 19//19 51//51
f 51//51 19//19 52//52
f 19//19 20//20 52//52
f 52//52 20//20 53//53
f 20//20 21//21 53//53
f 53//53 21//21 54//54
f 21//21 22//22 54//54
f 54//54 22//22 55//55
f 22//22 23//23 55//55
f 55//55 23//23 56//56
f 23//23 24//24 56//56
f 56//56 24//24 57//57
f 24//24 25//25 57//57
f 57//57 25//25 58//58
f 25//25 26//26 58//58
f 58//58 26//26 59//59
f 26//26 27//27 59//59
f 59//59 27//27 60//60
f 27//27 28//28 60//60
f 60//60 28//28 61//61
f 28//28 29//29 61//61
f 61//61 29//29 62//62
f 29//29 30//30 62//62
f 62//62 30//30 63//63
f 30//30 31//31 63//63
f 63//63 31//31 64//64
f 31//31 32//32 64//64
f 64//64 32//32 65//65
f 32//32 33//33 65//65
f 65//65 33//33 66//66
