v 0.0 0.0 0.0
v 0.001338620904382637 -0.10111731626486781 0.625
v 0.0053541252363427105 -0.20219082821776135 1.25
v 0.012045437948275506 -0.30317674327418015 1.875
v 0.021410767613964765 -0.40403129230143064 2.5
v 0.03344760690819726 -0.5047107413366823 3.125
v 0.04815273327803027 -0.605171403295606 3.75
v 0.06552220980555568 -0.705369649668464 4.375
v 0.08555138626189596 -0.8052619222005157 5.0
v 0.10823490035219052 -0.9048047445536174 5.625
v 0.13356667915121 -1.0039547339458874 6.25
v 0.1615399407292255 -1.1026686127663266 6.875
v 0.1921471959676957 -1.2009032201612824 7.5
v 0.22538025056428168 -1.2986155235896515 8.125
v 0.2612302072266637 -1.3957626303437323 8.75
v 0.2996874680545609 -1.4923017990326386 9.375
v 0.3407417371093171 -1.5881904510252074 10.0
v 0.3843820231703816 -1.6833861818493236 10.625
v 0.4305966426779122 -1.7778467725446232 11.25
v 0.4793732228607581 -1.8715302009655352 11.875
v 0.5306987050489429 -1.9643946530316159 12.5
v 0.5845593481697922 -2.0563985339222004 13.125
v 0.640940732426742 -2.1475004792123347 13.75
v 0.6998277631598793 -2.2376593659470356 14.375
v 0.7612046748871322 -2.326834323650898 15.0
v 0.8250550355250859 -2.41498474527011 15.625
v 0.8913617507882421 -2.5020702980439467 16.25
v 0.9601070687655664 -2.58805093430282 16.875
v 1.0312725846731183 -2.6728869021900135 17.5
v 1.1048392457814398 -2.7565387563042067 18.125
v 1.1807873565164488 -2.8389673682599765 18.75
v 1.2590965837324113 -2.9201339371634 19.375
v 1.3397459621556127 -2.999999999999999 20.0
v 20.0 0.0 0.0
v 19.998661379095616 0.2261173162648678 0.625
v 19.994645874763656 0.45219082821776135 1.25
v 19.987954562051726 0.6781767432741801 1.875
v 19.978589232386035 0.9040312923014306 2.5
v 19.966552393091803 1.1297107413366823 3.125
v 19.95184726672197 1.3551714032956061 3.75
v 19.934477790194443 1.580369649668464 4.375
v 19.914448613738102 1.8052619222005157 5.0
v 19.89176509964781 2.0298047445536174 5.625
v 19.86643332084879 2.2539547339458874 6.25
v 19.838460059270773 2.4776686127663266 6.875
v 19.807852804032304 2.7009032201612824 7.5
v 19.77461974943572 2.9236155235896515 8.125
v 19.738769792773336 3.1457626303437323 8.75
v 19.70031253194544 3.3673017990326386 9.375
v 19.65925826289068 3.5881904510252074 10.0
v 19.61561797682962 3.8083861818493236 10.625
v 19.569403357322088 4.027846772544623 11.25
v 19.520626777139242 4.246530200965536 11.875
v 19.46930129495106 4.464394653031616 12.5
v 19.41544065183021 4.6813985339222 13.125
v 19.359059267573258 4.897500479212335 13.75
v 19.30017223684012 5.112659365947035 14.375
v 19.238795325112868 5.326834323650898 15.0
v 19.174944964474914 5.53998474527011 15.625
v 19.108638249211758 5.752070298043947 16.25
v 19.039892931234434 5.96305093430282 16.875
v 18.96872741532688 6.1728869021900135 17.5
v 18.89516075421856 6.381538756304207 18.125
v 18.819212643483553 6.5889673682599765 18.75
v 18.74090341626759 6.7951339371634 19.375
v 18.66025403784439 6.999999999999999 20.0
vn 0.0 1.0 0
vn -0.01636173162648678 0.9998661379095618 0
vn -0.03271908282177614 0.9994645874763657 0
vn -0.049067674327418015 0.9987954562051724 0
vn -0.06540312923014306 0.9978589232386035 0
vn -0.08172107413366822 0.9966552393091803 0
vn -0.0980171403295606 0.9951847266721969 0
vn -0.1142869649668464 0.9934477790194444 0
vn -0.13052619222005157 0.9914448613738104 0
vn -0.14673047445536175 0.989176509964781 0
vn -0.16289547339458874 0.986643332084879 0
vn -0.17901686127663266 0.9838460059270774 0
vn -0.19509032201612825 0.9807852804032304 0
vn -0.21111155235896514 0.9774619749435719 0
vn -0.22707626303437323 0.9738769792773336 0
vn -0.24298017990326387 0.970031253194544 0
vn -0.25881904510252074 0.9659258262890683 0
vn -0.27458861818493235 0.9615617976829619 0
vn -0.29028467725446233 0.9569403357322088 0
vn -0.3059030200965535 0.9520626777139243 0
vn -0.3214394653031616 0.9469301294951057 0
vn -0.33688985339222005 0.9415440651830208 0
vn -0.3522500479212335 0.9359059267573258 0
vn -0.36751593659470355 0.9300172236840121 0
vn -0.3826834323650898 0.9238795325112867 0
vn -0.397748474527011 0.9174944964474914 0
vn -0.41270702980439467 0.9108638249211758 0
vn -0.42755509343028203 0.9039892931234433 0
vn -0.4422886902190013 0.8968727415326883 0
vn -0.4569038756304207 0.8895160754218561 0
vn -0.47139673682599764 0.881921264348355 0
vn -0.48576339371634003 0.8740903416267589 0
vn -0.49999999999999994 0.8660254037844387 0
vn 0.0 1.0 0
vn -0.01636173162648678 0.9998661379095618 0
vn -0.03271908282177614 0.9994645874763657 0
vn -0.049067674327418015 0.9987954562051724 0
vn -0.06540312923014306 0.9978589232386035 0
vn -0.08172107413366822 0.9966552393091803 0
vn -0.0980171403295606 0.9951847266721969 0
vn -0.1142869649668464 0.9934477790194444 0
vn -0.13052619222005157 0.9914448613738104 0
vn -0.14673047445536175 0.989176509964781 0
vn -0.16289547339458874 0.986643332084879 0
vn -0.17901686127663266 0.9838460059270774 0
vn -0.19509032201612825 0.9807852804032304 0
vn -0.21111155235896514 0.9774619749435719 0
vn -0.22707626303437323 0.9738769792773336 0
vn -0.24298017990326387 0.970031253194544 0
vn -0.25881904510252074 0.9659258262890683 0
vn -0.27458861818493235 0.9615617976829619 0
vn -0.29028467725446233 0.9569403357322088 0
vn -0.3059030200965535 0.9520626777139243 0
vn -0.3214394653031616 0.9469301294951057 0
vn -0.33688985339222005 0.9415440651830208 0
vn -0.3522500479212335 0.9359059267573258 0
vn -0.36751593659470355 0.9300172236840121 0
vn -0.3826834323650898 0.9238795325112867 0
vn -0.397748474527011 0.9174944964474914 0
vn -0.41270702980439467 0.9108638249211758 0
vn -0.42755509343028203 0.9039892931234433 0
vn -0.4422886902190013 0.8968727415326883 0
vn -0.4569038756304207 0.8895160754218561 0
vn -0.47139673682599764 0.881921264348355 0
vn -0.48576339371634003 0.8740903416267589 0
vn -0.49999999999999994 0.8660254037844387 0
f 1//1 2//2 34//34
f 34//34 2//2 35//35
f 2//2 3//3 35//35
f 35//35 3//3 36//36
f 3//3 4//4 36//36
f 36//36 4//4 37//37
f 4//4 5//5 37//37
f 37//37 5//5 38//38
f 5//5 6//6 38//38
f 38//38 6//6 39//39
f 6//6 7//7 39//39
f 39//39 7//7 40//40
f 7//7 8//8 40//40
f 40//40 8//8 41//41
f 8//8 9//9 41//41
f 41//41 9//9 42//42
f 9//9 10//10 42//42
f 42//42 10//10 43//43
f 10//10 11//11 43//43
f 43//43 11//11 44//44
f 11//11 12//12 44//44
f 44//44 12//12 45//45
f 12//12 13//13 45//45
f 45//45 13//13 46//46
f 13//13 14//14 46//46
f 46//46 14//14 47//47
f 14//14 15//15 47//47
f 47//47 15//15 48//48
f 15//15 16//16 48//48
f 48//48 16//16 49//49
f 16//16 17//17 49//49
f 49//49 17//17 50//50
f 17//17 18//18 50//50
f 50//50 18//18 51//51
f 18//18 19//19 51//51
f 51//51 19//19 52//52
f 19//19 20//20 52//52
f 52//52 20//20 53//53
f 20//20 21//21 53//53
f 53//53 21//21 54//54
f 21//21 22//22 54//54
f 54//54 22//22 55//55
f 22//22 23//23 55//55
f 55//55 23//23 56//56
f 23//23 24//24 56//56
f 56//56 24//24 57//57
f 24//24 25//25 57//57
f 57//57 25//25 58//58
f 25//25 26//26 58//58
f 58//58 26//26 59//59
f 26//26 27//27 59//59
f 59//59 27//27 60//60
f 27//27 28//28 60//60
f 60//60 28//28 61//61
f 28//28 29//29 61//61
f 61//61 29//29 62//62
f 29//29 30//30 62//62
f 62//62 30//30 63//63
f 30//30 31//31 63//63
f 63//63 31//31 64//64
f 31//31 32//32 64//64
f 64//64 32//32 65//65
f 32//32 33//33 65//65
f 65//65 33//33 66//66
